<svg id="wave" style="transform:rotate(180deg); transition: 0.3s; background-color:#FAF9F6" viewBox="0 0 1440 490" version="1.1" xmlns="http://www.w3.org/2000/svg"><defs><linearGradient id="sw-gradient-0" x1="0" x2="0" y1="1" y2="0"><stop stop-color="rgba(62, 182.292, 243, 1)" offset="0%"></stop><stop stop-color="rgba(11, 98.763, 255, 1)" offset="100%"></stop></linearGradient></defs><path style="transform:translate(0, 0px); opacity:1" fill="url(#sw-gradient-0)" d="M0,441L34.3,408.3C68.6,376,137,310,206,277.7C274.3,245,343,245,411,220.5C480,196,549,147,617,179.7C685.7,212,754,327,823,343C891.4,359,960,278,1029,277.7C1097.1,278,1166,359,1234,326.7C1302.9,294,1371,147,1440,114.3C1508.6,82,1577,163,1646,220.5C1714.3,278,1783,310,1851,334.8C1920,359,1989,376,2057,367.5C2125.7,359,2194,327,2263,302.2C2331.4,278,2400,261,2469,285.8C2537.1,310,2606,376,2674,392C2742.9,408,2811,376,2880,359.3C2948.6,343,3017,343,3086,294C3154.3,245,3223,147,3291,138.8C3360,131,3429,212,3497,269.5C3565.7,327,3634,359,3703,375.7C3771.4,392,3840,392,3909,383.8C3977.1,376,4046,359,4114,326.7C4182.9,294,4251,245,4320,220.5C4388.6,196,4457,196,4526,212.3C4594.3,229,4663,261,4731,228.7C4800,196,4869,98,4903,49L4937.1,0L4937.1,490L4902.9,490C4868.6,490,4800,490,4731,490C4662.9,490,4594,490,4526,490C4457.1,490,4389,490,4320,490C4251.4,490,4183,490,4114,490C4045.7,490,3977,490,3909,490C3840,490,3771,490,3703,490C3634.3,490,3566,490,3497,490C3428.6,490,3360,490,3291,490C3222.9,490,3154,490,3086,490C3017.1,490,2949,490,2880,490C2811.4,490,2743,490,2674,490C2605.7,490,2537,490,2469,490C2400,490,2331,490,2263,490C2194.3,490,2126,490,2057,490C1988.6,490,1920,490,1851,490C1782.9,490,1714,490,1646,490C1577.1,490,1509,490,1440,490C1371.4,490,1303,490,1234,490C1165.7,490,1097,490,1029,490C960,490,891,490,823,490C754.3,490,686,490,617,490C548.6,490,480,490,411,490C342.9,490,274,490,206,490C137.1,490,69,490,34,490L0,490Z"></path><defs><linearGradient id="sw-gradient-1" x1="0" x2="0" y1="1" y2="0"><stop stop-color="rgba(62, 170.028, 243, 1)" offset="0%"></stop><stop stop-color="rgba(11, 73.964, 255, 1)" offset="100%"></stop></linearGradient></defs><path style="transform:translate(0, 50px); opacity:0.9" fill="url(#sw-gradient-1)" d="M0,49L34.3,81.7C68.6,114,137,180,206,228.7C274.3,278,343,310,411,334.8C480,359,549,376,617,326.7C685.7,278,754,163,823,98C891.4,33,960,16,1029,73.5C1097.1,131,1166,261,1234,269.5C1302.9,278,1371,163,1440,163.3C1508.6,163,1577,278,1646,310.3C1714.3,343,1783,294,1851,285.8C1920,278,1989,310,2057,277.7C2125.7,245,2194,147,2263,130.7C2331.4,114,2400,180,2469,196C2537.1,212,2606,180,2674,138.8C2742.9,98,2811,49,2880,65.3C2948.6,82,3017,163,3086,163.3C3154.3,163,3223,82,3291,73.5C3360,65,3429,131,3497,130.7C3565.7,131,3634,65,3703,106.2C3771.4,147,3840,294,3909,302.2C3977.1,310,4046,180,4114,106.2C4182.9,33,4251,16,4320,40.8C4388.6,65,4457,131,4526,163.3C4594.3,196,4663,196,4731,212.3C4800,229,4869,261,4903,277.7L4937.1,294L4937.1,490L4902.9,490C4868.6,490,4800,490,4731,490C4662.9,490,4594,490,4526,490C4457.1,490,4389,490,4320,490C4251.4,490,4183,490,4114,490C4045.7,490,3977,490,3909,490C3840,490,3771,490,3703,490C3634.3,490,3566,490,3497,490C3428.6,490,3360,490,3291,490C3222.9,490,3154,490,3086,490C3017.1,490,2949,490,2880,490C2811.4,490,2743,490,2674,490C2605.7,490,2537,490,2469,490C2400,490,2331,490,2263,490C2194.3,490,2126,490,2057,490C1988.6,490,1920,490,1851,490C1782.9,490,1714,490,1646,490C1577.1,490,1509,490,1440,490C1371.4,490,1303,490,1234,490C1165.7,490,1097,490,1029,490C960,490,891,490,823,490C754.3,490,686,490,617,490C548.6,490,480,490,411,490C342.9,490,274,490,206,490C137.1,490,69,490,34,490L0,490Z"></path></svg>