<svg id="wave" style="transform:rotate(0deg); transition: 0.3s; background-color:#FAF9F6" viewBox="0 0 1440 490" version="1.1" xmlns="http://www.w3.org/2000/svg"><defs><linearGradient id="sw-gradient-0" x1="0" x2="0" y1="1" y2="0"><stop stop-color="rgba(62, 182.292, 243, 1)" offset="0%"></stop><stop stop-color="rgba(11, 98.763, 255, 1)" offset="100%"></stop></linearGradient></defs><path style="transform:translate(0, 0px); opacity:1" fill="url(#sw-gradient-0)" d="M0,441L205.7,245L411.4,245L617.1,98L822.9,441L1028.6,196L1234.3,441L1440,0L1645.7,245L1851.4,343L2057.1,392L2262.9,294L2468.6,245L2674.3,441L2880,343L3085.7,343L3291.4,49L3497.1,294L3702.9,392L3908.6,392L4114.3,343L4320,196L4525.7,196L4731.4,294L4937.1,0L4937.1,490L4731.4,490L4525.7,490L4320,490L4114.3,490L3908.6,490L3702.9,490L3497.1,490L3291.4,490L3085.7,490L2880,490L2674.3,490L2468.6,490L2262.9,490L2057.1,490L1851.4,490L1645.7,490L1440,490L1234.3,490L1028.6,490L822.9,490L617.1,490L411.4,490L205.7,490L0,490Z"></path><defs><linearGradient id="sw-gradient-1" x1="0" x2="0" y1="1" y2="0"><stop stop-color="rgba(62, 170.028, 243, 1)" offset="0%"></stop><stop stop-color="rgba(11, 73.964, 255, 1)" offset="100%"></stop></linearGradient></defs><path style="transform:translate(0, 50px); opacity:0.9" fill="url(#sw-gradient-1)" d="M0,49L205.7,245L411.4,343L617.1,392L822.9,49L1028.6,0L1234.3,392L1440,49L1645.7,392L1851.4,245L2057.1,343L2262.9,49L2468.6,245L2674.3,147L2880,0L3085.7,245L3291.4,0L3497.1,196L3702.9,0L3908.6,441L4114.3,49L4320,0L4525.7,196L4731.4,196L4937.1,294L4937.1,490L4731.4,490L4525.7,490L4320,490L4114.3,490L3908.6,490L3702.9,490L3497.1,490L3291.4,490L3085.7,490L2880,490L2674.3,490L2468.6,490L2262.9,490L2057.1,490L1851.4,490L1645.7,490L1440,490L1234.3,490L1028.6,490L822.9,490L617.1,490L411.4,490L205.7,490L0,490Z"></path></svg>